<?xml version="1.0" encoding="UTF-8"?>
<svg width="190px" height="172px" viewBox="0 0 190 172" version="1.1" xmlns="http://www.w3.org/2000/svg" xmlns:xlink="http://www.w3.org/1999/xlink">
    <!-- Generator: Sketch 42 (36781) - http://www.bohemiancoding.com/sketch -->
    <title>iPad Pro Portrait</title>
    <desc>Created with Sketch.</desc>
    <defs></defs>
    <g id="Page-1" stroke="none" stroke-width="1" fill="none" fill-rule="evenodd">
        <g id="iPad-Pro-Portrait" transform="translate(-83.000000, -30.000000)" fill="#000000">
            <path d="M122.235,62.8 C121.278329,63.5933373 120.8,64.7366592 120.8,66.23 C120.8,67.7233408 121.243329,68.9249954 122.13,69.835 C123.016671,70.7450045 124.17166,71.4449975 125.595,71.935 C127.01834,72.4250024 128.604991,72.8916644 130.355,73.335 C132.105009,73.7783355 133.843325,74.3149968 135.57,74.945 C137.296675,75.5750031 138.87166,76.356662 140.295,77.29 C141.71834,78.223338 142.873329,79.5416581 143.76,81.245 C144.646671,82.9483418 145.09,84.9899881 145.09,87.37 C145.09,91.5233541 143.39835,95.0816518 140.015,98.045 C136.63165,101.008348 132.175028,102.49 126.645,102.49 C121.114972,102.49 116.65835,101.160013 113.275,98.5 C109.89165,95.8399867 108.2,92.0600245 108.2,87.16 L120.94,87.16 C121.266668,91.0800196 123.273315,93.04 126.96,93.04 C128.686675,93.04 130.039995,92.5850045 131.02,91.675 C132.000005,90.7649954 132.49,89.610007 132.49,88.21 C132.49,86.809993 132.046671,85.6666711 131.16,84.78 C130.273329,83.8933289 129.11834,83.1933359 127.695,82.68 C126.27166,82.1666641 124.685009,81.6883356 122.935,81.245 C121.184991,80.8016645 119.446675,80.2533366 117.72,79.6 C115.993325,78.9466634 114.41834,78.1650046 112.995,77.255 C111.57166,76.3449954 110.416671,75.0383418 109.53,73.335 C108.643329,71.6316581 108.2,69.613345 108.2,67.28 C108.2,62.7066438 109.903316,59.0433471 113.31,56.29 C116.716684,53.5366529 121.068307,52.16 126.365,52.16 C131.661693,52.16 135.943317,53.3616546 139.21,55.765 C142.476683,58.1683453 144.179999,61.9599741 144.32,67.14 L131.3,67.14 C131.113332,65.3666578 130.541671,64.0016714 129.585,63.045 C128.628329,62.0883285 127.403341,61.61 125.91,61.61 C124.416659,61.61 123.191671,62.0066627 122.235,62.8 Z M166.51,62.94 L166.51,68.68 C168.983346,64.5733128 172.92664,62.52 178.34,62.52 C182.820022,62.52 186.448319,64.0133184 189.225,67 C192.001681,69.9866816 193.39,74.046641 193.39,79.18 L193.39,102 L181.49,102 L181.49,80.79 C181.49,78.2699874 180.825007,76.3216735 179.495,74.945 C178.164993,73.5683265 176.333345,72.88 174,72.88 C171.666655,72.88 169.835007,73.5683265 168.505,74.945 C167.174993,76.3216735 166.51,78.2699874 166.51,80.79 L166.51,102 L154.54,102 L154.54,62.94 L166.51,62.94 Z M220.13,102.49 C214.436638,102.49 209.770018,100.658352 206.13,96.995 C202.489982,93.3316483 200.67,88.466697 200.67,82.4 C200.67,76.333303 202.478315,71.5033513 206.095,67.91 C209.711685,64.3166487 214.389971,62.52 220.13,62.52 C225.870029,62.52 230.629981,64.2933156 234.41,67.84 C238.190019,71.3866844 240.08,76.3099685 240.08,82.61 C240.08,83.9633401 239.986668,85.2233275 239.8,86.39 L212.92,86.39 C213.153335,88.1166753 213.923327,89.5283279 215.23,90.625 C216.536673,91.7216722 217.948326,92.27 219.465,92.27 C220.981674,92.27 222.11333,92.1183348 222.86,91.815 C223.60667,91.5116651 224.154998,91.2083348 224.505,90.905 C224.855002,90.6016652 225.309997,90.1000035 225.87,89.4 L238.82,89.4 C237.699994,93.3200196 235.460017,96.4816546 232.1,98.885 C228.739983,101.288345 224.750023,102.49 220.13,102.49 Z M225.24,74.455 C223.839993,73.311661 222.183343,72.74 220.27,72.74 C218.356657,72.74 216.746673,73.311661 215.44,74.455 C214.133327,75.5983391 213.316668,77.0799909 212.99,78.9 L227.62,78.9 C227.433332,77.0799909 226.640007,75.5983391 225.24,74.455 Z M108.9,152.4 L108.9,142.46 L139.7,142.46 L139.7,152.4 L108.9,152.4 Z M161.82,120.2 L161.82,138.68 C164.293346,134.573313 168.23664,132.52 173.65,132.52 C178.130022,132.52 181.758319,134.013318 184.535,137 C187.311681,139.986682 188.7,144.046641 188.7,149.18 L188.7,172 L176.8,172 L176.8,150.79 C176.8,148.269987 176.135007,146.321674 174.805,144.945 C173.474993,143.568326 171.643345,142.88 169.31,142.88 C166.976655,142.88 165.145007,143.568326 163.815,144.945 C162.484993,146.321674 161.82,148.269987 161.82,150.79 L161.82,172 L149.85,172 L149.85,120.2 L161.82,120.2 Z M225.24,152.47 C225.24,149.389985 224.376675,147.021675 222.65,145.365 C220.923325,143.708325 218.940011,142.88 216.7,142.88 C214.459989,142.88 212.476675,143.719992 210.75,145.4 C209.023325,147.080008 208.16,149.459985 208.16,152.54 C208.16,155.620015 209.023325,157.988325 210.75,159.645 C212.476675,161.301675 214.459989,162.13 216.7,162.13 C218.940011,162.13 220.923325,161.290008 222.65,159.61 C224.376675,157.929992 225.24,155.550015 225.24,152.47 Z M195.98,152.54 C195.98,146.706637 197.706649,141.911685 201.16,138.155 C204.613351,134.398315 208.824975,132.52 213.795,132.52 C218.765025,132.52 222.579987,134.363315 225.24,138.05 L225.24,132.94 L237.21,132.94 L237.21,172 L225.24,172 L225.24,166.33 C222.346652,170.436687 218.473358,172.49 213.62,172.49 C208.766642,172.49 204.613351,170.623352 201.16,166.89 C197.706649,163.156648 195.98,158.373362 195.98,152.54 Z" id="Sne--ha"></path>
            <text id="Designer-+-Wannabe-F" font-family="Poppins" font-size="12" font-weight="bold">
                <tspan x="112.268" y="212">Designer + Wannabe</tspan>
                <tspan x="112.796" y="231">Front-end Developer </tspan>
            </text>
        </g>
    </g>
</svg>